<?xml version="1.0" encoding="UTF-8"?>
<svg id="Layer_1" data-name="Layer 1" xmlns="http://www.w3.org/2000/svg" viewBox="0 0 116.43 232.34">
  <defs>
    <style>
      .cls-1 {
        fill: #fff;
      }

      .cls-2 {
        fill: #098276;
      }
    </style>
  </defs>
  <path class="cls-2" d="M29.35,11.4c.2.02.36-.12.52-.21.97-.51,3.49-2.3,4.36-2.37,1.88-.16,2.71,2.02,1.28,3.19-1.31,1.07-4.06,2.42-5.64,3.34-.16.1-.33.19-.52.2v9.31l7.86-4.56c.37-2.28-.14-4.89.1-7.16.17-1.61,2.18-2.26,3.2-.96.11.13.39.61.39.73v5.22l4.7-2.64c2.05-.39,3.13,2.04,1.39,3.3-1.24.89-2.94,1.5-4.19,2.43-.03.16.09.19.19.26,1.05.79,3.7,1.74,4.41,2.66,1.13,1.45-.33,3.45-2.08,2.75l-6.28-3.48-7.91,4.54,7.91,4.54,6.33-3.53c1.75-.54,3.14,1.36,2.02,2.81-.54.7-2.96,1.78-3.85,2.32-.11.15-.84.4-.75.59.2.42,4.18,2.15,4.66,2.86,1.08,1.37-.17,3.27-1.86,2.87l-4.7-2.64v5.22c0,.12-.4.83-.51.95-1.09,1.06-2.92.3-3.08-1.17-.24-2.25.23-4.84-.05-7.13l-7.91-4.49v9.2c.19.02.36.11.52.2,1.55.91,4.35,2.29,5.64,3.34,1.71,1.4.24,4.06-2.2,2.87-1.32-.65-2.65-1.67-3.96-2.37v5.33c0,.69-1.16,1.5-1.85,1.49-.62,0-1.74-.73-1.74-1.38v-5.33l-4.66,2.57c-1.88.37-3.03-1.78-1.66-3.12l6.32-3.78v-9.03l-.33.06-7.58,4.43c-.17,1.81.02,3.64-.05,5.45-.02.54-.05,1.52-.12,2.01-.24,1.56-2.72,1.82-3.38.25-.3-.72-.08-.87-.09-1.48,0-1.37,0-2.73,0-4.1l-4.65,2.59c-1.79.56-3.08-1.4-1.97-2.87.46-.55,4.63-2.54,4.71-2.8.07-.21-.08-.15-.15-.19-1.05-.7-3.82-1.88-4.5-2.67-1.17-1.36.23-3.41,1.96-2.86l6.44,3.54,7.8-4.54-7.8-4.54-6.27,3.48c-1.8.71-3.39-1.41-2.08-2.87.75-.84,3.4-1.76,4.42-2.54.13-.1.23-.12.19-.32l-4.55-2.58c-1.25-1.27-.34-3.3,1.45-3.13,1.77.66,3.27,1.91,5,2.68v-3.65c0-.63-.17-1.14.05-1.85.49-1.57,3.09-1.46,3.42.18l.17,7.45,7.58,4.43.33.06v-9.03l-6.32-3.78c-1.37-1.35-.26-3.48,1.66-3.12l4.66,2.57v-5.33c0-.66,1.11-1.34,1.74-1.34.69,0,1.85.74,1.85,1.45v5.22Z"/>
  <path class="cls-2" d="M59.04,152.29V57.96c0-7.47,6.06-13.53,13.53-13.53s13.53,6.06,13.53,13.53v94.33c1.71.81,3.33,1.89,4.85,2.98V56.68c0-10.11-8.27-18.38-18.38-18.38s-18.38,8.27-18.38,18.38v98.04c1.52-1.09,3.14-1.62,4.85-2.43Z"/>
  <path class="cls-2" d="M86.1,152.29v2.33c0,1.82.92,3.54,2.48,4.46,13.33,7.83,20.42,25.14,12,42.68-2.29,4.76-8.16,10.54-12.94,12.79-23.61,11.11-46.73-5.83-46.73-28.16,0-11.63,6.28-21.8,15.62-27.3,1.53-.9,2.5-2.5,2.5-4.28v-2.52c-18.15,7.21-29.19,28.47-19.63,50.37,3.33,7.64,9.5,13.72,17.15,17,26.84,11.52,52.69-7.86,52.69-33.28,0-15.48-9.59-28.71-23.15-34.09Z"/>
  <g>
    <rect class="cls-2" x="70.02" y="56" width="5.11" height="120.17" rx="2.55" ry="2.55"/>
    <circle class="cls-2" cx="72.57" cy="187.68" r="20.44"/>
    <circle class="cls-1" cx="72.57" cy="187.68" r="15.98"/>
  </g>
  <rect class="cls-2" x="79.21" y="76.56" width="11.74" height="4.36" rx="2.18" ry="2.18"/>
  <rect class="cls-2" x="79.21" y="91.44" width="11.74" height="4.36" rx="2.18" ry="2.18"/>
  <rect class="cls-2" x="79.21" y="106.33" width="11.74" height="4.36" rx="2.18" ry="2.18"/>
  <rect class="cls-2" x="79.21" y="121.22" width="11.74" height="4.36" rx="2.18" ry="2.18"/>
</svg>