<?xml version="1.0" encoding="UTF-8"?>
<svg id="Layer_1" data-name="Layer 1" xmlns="http://www.w3.org/2000/svg" viewBox="0 0 116.43 232.34">
  <defs>
    <style>
      .cls-1 {
        fill: #098276;
      }
    </style>
  </defs>
  <path class="cls-1" d="M53.41,34.36c22.07-2.28,42.38,12.41,46.83,34.14,4.84,23.62-13.88,50.96-28.2,68.47-1.87,2.28-12.1,14.78-13.85,14.77-1.34,0-11.87-12.94-13.83-14.77C25.07,112.83,1.2,77.04,26.28,48.38c6.39-7.31,17.45-13.02,27.14-14.02ZM53.36,53.63c-10.05,1.58-18.68,12.07-19.11,22.09-.85,19.96,22.09,32.43,38.22,20.54,20.08-14.8,6.93-46.73-19.11-42.63Z"/>
  <path class="cls-1" d="M86.43,124.05c25.92,12.88,29.07,45.3,5.71,63.27-16.7,12.84-42.8,14-61.25,4.29-28.98-15.26-30.24-51.88-1.31-67.61,7.03,7.72,2.17,6.63-2.89,11.31-26,24.09.08,54.3,29.79,55.06,31.05.79,60.65-29.65,33.22-55.06-5.33-4.94-9.37-3.03-3.27-11.26Z"/>
  <path class="cls-1" d="M76.39,137.54c3.37-1.98,12.29,8.45,13.71,11.65,8.12,18.21-11.52,31.37-27.72,32.73-17.89,1.51-45.13-10.56-36.35-32.15,2.46-6.04,14.07-18.84,17.39-7-.3,1.74-10.32,5.28-10.91,13.55-1.58,22.19,50.14,23.4,51.32,1.64.56-10.25-10.41-12.79-10.92-15.18-.07-.31,3.18-5.09,3.46-5.25Z"/>
</svg>