<?xml version="1.0" encoding="UTF-8"?>
<svg id="Layer_1" data-name="Layer 1" xmlns="http://www.w3.org/2000/svg" viewBox="0 0 131.32 171.7">
  <defs>
    <style>
      .cls-1 {
        fill: #fff;
      }

      .cls-1, .cls-2 {
        stroke: #098276;
        stroke-miterlimit: 10;
        stroke-width: 4px;
      }

      .cls-2 {
        fill: none;
      }

      .cls-3 {
        fill: #098276;
      }
    </style>
  </defs>
  <path class="cls-3" d="M116.47,57.2l-51.34-28.96L14.37,58.21l.59,58.95,51.34,28.96,50.75-29.98-.59-58.95ZM66.25,141.55l-47.36-26.72-.54-54.37,46.82-27.66,47.36,26.72.54,54.37-46.82,27.66Z"/>
  <circle class="cls-2" cx="65.71" cy="87.18" r="18.93"/>
  <path class="cls-1" d="M78.73,30.15c0,7.19-5.83,13.02-13.02,13.02-7.19,0-13.02-5.83-13.02-13.02,0-7.19,5.83-13.02,13.02-13.02s13.02,5.83,13.02,13.02Z"/>
  <path class="cls-1" d="M78.73,141.55c0,7.19-5.83,13.02-13.02,13.02-7.19,0-13.02-5.83-13.02-13.02,0-7.19,5.83-13.02,13.02-13.02,7.19,0,13.02,5.83,13.02,13.02Z"/>
  <circle class="cls-1" cx="114.91" cy="113.47" r="13.02"/>
  <path class="cls-1" d="M127.93,59.6c0,7.19-5.83,13.02-13.02,13.02-7.19,0-13.02-5.83-13.02-13.02,0-7.19,5.83-13.02,13.02-13.02,7.19,0,13.02,5.83,13.02,13.02Z"/>
  <path class="cls-1" d="M29.43,59.6c0,7.19-5.83,13.02-13.02,13.02-7.19,0-13.02-5.83-13.02-13.02,0-7.19,5.83-13.02,13.02-13.02,7.19,0,13.02,5.83,13.02,13.02Z"/>
  <path class="cls-1" d="M29.43,113.47c0,7.19-5.83,13.02-13.02,13.02-7.19,0-13.02-5.83-13.02-13.02,0-7.19,5.83-13.02,13.02-13.02s13.02,5.83,13.02,13.02Z"/>
  <g>
    <rect class="cls-3" x="63.36" y="114.57" width="3.37" height="14.39" rx="1.68" ry="1.68"/>
    <rect class="cls-3" x="63.36" y="42.74" width="3.37" height="16.86" rx="1.68" ry="1.68"/>
  </g>
  <g>
    <rect class="cls-3" x="26.97" y="101.9" width="14.39" height="3.37" rx="1.68" ry="1.68" transform="translate(-45.36 28.94) rotate(-28.56)"/>
    <rect class="cls-3" x="87.74" y="68.16" width="16.86" height="3.37" rx="1.68" ry="1.68" transform="translate(-21.69 54.47) rotate(-28.56)"/>
  </g>
  <g>
    <rect class="cls-3" x="33.36" y="62.93" width="3.37" height="14.39" rx="1.68" ry="1.68" transform="translate(-43.32 68.04) rotate(-61.92)"/>
    <rect class="cls-3" x="95.65" y="94.92" width="3.37" height="16.86" rx="1.68" ry="1.68" transform="translate(-39.67 140.58) rotate(-61.92)"/>
  </g>
</svg>