<?xml version="1.0" encoding="UTF-8"?>
<svg id="Layer_1" data-name="Layer 1" xmlns="http://www.w3.org/2000/svg" viewBox="0 0 116.43 232.34">
  <defs>
    <style>
      .cls-1 {
        fill: #098276;
      }
    </style>
  </defs>
  <path class="cls-1" d="M53.87,111.91l-14.83-3.94c-.27-.21-.29-.24-.12-.56.23-.43,2.36-2.15,2.36-2.36-11.2-11.2-30-.65-26.36,14.9,2.65,11.31,16.63,15.75,25.47,8.25,10-8.48,19.01-20.04,28.88-28.9,21.8-19.57,51.57,6.51,36.63,29.89-6.63,10.36-20.76,13.73-31.49,7.7-1.84-1.04-3.35-2.53-5.14-3.64l-2.8,2.47-4.05-15.28,15.28,4.05-2.59,2.92c8.5,8.65,23.67,4.17,26.32-7.64,3.3-14.7-13.61-25.17-25.3-15.86-9.97,9.2-19.08,20.08-29.1,29.12-17.99,16.22-45.02,1.05-39.88-22.34,3.96-17.99,26.94-24.24,39.87-11.39l2.69-2.46,4.16,15.06Z"/>
</svg>