<?xml version="1.0" encoding="UTF-8"?>
<svg id="Layer_1" data-name="Layer 1" xmlns="http://www.w3.org/2000/svg" viewBox="0 0 116.43 232.34">
  <defs>
    <style>
      .cls-1 {
        fill: #098276;
      }
    </style>
  </defs>
  <path class="cls-1" d="M88.55,92.3h0c2.13,2.13,2.13,5.59,0,7.72l-37.93,37.93c-2.13,2.13-5.59,2.13-7.72,0l-18.36-18.36c-2.11-2.11-2.12-5.5-.07-7.65,1.32-1.38,2.68-2.52,3.82-2.32,2.12.37,8.88,9.02,13.76,13.71,2.12,2.04,5.5,1.97,7.59-.1l31.21-30.94c2.13-2.12,5.58-2.11,7.7.02Z"/>
  <path class="cls-1" d="M55.52,64.87c-67.88,3.33-61.89,109.99,9.39,102.27,62.15-6.73,56.96-105.53-9.39-102.27ZM64.2,161.76C.45,168.66-4.9,73.28,55.81,70.29c59.33-2.91,63.97,85.45,8.39,91.46Z"/>
</svg>