<?xml version="1.0" encoding="UTF-8"?>
<svg id="Layer_1" data-name="Layer 1" xmlns="http://www.w3.org/2000/svg" viewBox="0 0 5425.53 1308.94">
  <g>
    <circle cx="1549.47" cy="684.23" r="23.96" style="fill: #bef21c;"/>
    <circle cx="1643.83" cy="684.23" r="23.96" style="fill: #bef21c;"/>
    <circle cx="1738.2" cy="684.23" r="23.96" style="fill: #bef21c;"/>
    <circle cx="1832.57" cy="684.23" r="23.96" style="fill: #bef21c;"/>
    <circle cx="1926.94" cy="684.23" r="23.96" style="fill: #bef21c;"/>
    <circle cx="2021.31" cy="684.23" r="23.96" style="fill: #bef21c;"/>
    <circle cx="2115.67" cy="684.23" r="23.96" style="fill: #bef21c;"/>
    <circle cx="2210.04" cy="684.23" r="23.96" style="fill: #bef21c;"/>
  </g>
  <g>
    <circle cx="3225.61" cy="684.23" r="23.96" style="fill: #bef21c;"/>
    <circle cx="3319.98" cy="684.23" r="23.96" style="fill: #bef21c;"/>
    <circle cx="3414.34" cy="684.23" r="23.96" style="fill: #bef21c;"/>
    <circle cx="3508.71" cy="684.23" r="23.96" style="fill: #bef21c;"/>
    <circle cx="3603.08" cy="684.23" r="23.96" style="fill: #bef21c;"/>
    <circle cx="3697.45" cy="684.23" r="23.96" style="fill: #bef21c;"/>
    <circle cx="3791.82" cy="684.23" r="23.96" style="fill: #bef21c;"/>
    <circle cx="3886.19" cy="684.23" r="23.96" style="fill: #bef21c;"/>
  </g>
  <circle cx="1036.62" cy="651.8" r="483.82" style="fill: none; stroke: #bef21c; stroke-miterlimit: 10; stroke-width: 22px;"/>
  <g>
    <rect x="2424.98" y="405.26" width="429.94" height="608.37" rx="13.98" ry="13.98" style="fill: #ddd; opacity: 0;"/>
    <rect x="2424.5" y="409.38" width="429.52" height="598.79" rx="13.73" ry="13.73" style="fill: #098276;"/>
    <path d="M2796.53,456.29c6.04,0,10.96,4.92,10.96,10.96v483.06c0,6.04-4.92,10.96-10.96,10.96h-314.54c-6.04,0-10.96-4.92-10.96-10.96v-483.06c0-6.04,4.92-10.96,10.96-10.96h314.54M2796.53,456.08h-314.54c-6.17,0-11.17,5-11.17,11.17v483.06c0,6.17,5,11.17,11.17,11.17h314.54c6.17,0,11.17-5,11.17-11.17v-483.06c0-6.17-5-11.17-11.17-11.17h0Z" style="fill: #919191;"/>
    <rect x="2481.27" y="466.91" width="315.97" height="483.42" rx="10.58" ry="10.58" style="fill: #026055;"/>
    <g>
      <rect x="2419.34" y="613.07" width="32.76" height="174.72" style="fill: #a5a5a5;"/>
      <path d="M2421,604.99h29.44c.92,0,1.66.74,1.66,1.66v6.38h-32.76v-6.38c0-.92.74-1.66,1.66-1.66Z" style="fill: #898989;"/>
      <path d="M2421,788.02h29.44c.92,0,1.66.74,1.66,1.66v6.38h-32.76v-6.38c0-.92.74-1.66,1.66-1.66Z" transform="translate(4871.44 1584.08) rotate(180)" style="fill: #898989;"/>
    </g>
    <g>
      <g>
        <g>
          <path d="M2536.04,810.11v-9.85h-27.58v9.85c-6.55,2.03-11.26,7.54-11.26,14.04v59.79c0,3.8,3.47,6.88,7.76,6.88h34.6c4.28,0,7.76-3.08,7.76-6.88v-59.79c0-6.5-4.71-12.02-11.26-14.04Z" style="fill: #b6ffd9;"/>
          <path d="M2500.95,796.27h42.6v4.1c0,.53-.43.96-.96.96h-40.68c-.53,0-.96-.43-.96-.96v-4.1h0Z" style="fill: #cecccc;"/>
          <rect x="2500.96" y="795.03" width="42.58" height="1.7" style="fill: #7a7a7a;"/>
          <rect x="2497.35" y="827.99" width="49.8" height="50.57" style="fill: #fff;"/>
          <g>
            <circle cx="2522.4" cy="854.12" r="16.63" style="fill: none; stroke: #1b836b; stroke-miterlimit: 10; stroke-width: .57px;"/>
            <path d="M2532.41,849.3h-5.19v-5.19c0-.68-.55-1.23-1.23-1.23h-7.18c-.68,0-1.23.55-1.23,1.23v5.19h-5.19c-.68,0-1.23.55-1.23,1.23v7.18c0,.68.55,1.23,1.23,1.23h5.19v5.19c0,.68.55,1.23,1.23,1.23h7.18c.68,0,1.23-.55,1.23-1.23v-5.19h5.19c.68,0,1.23-.55,1.23-1.23v-7.18c0-.68-.55-1.23-1.23-1.23Z" style="fill: #1b836b;"/>
          </g>
        </g>
        <g>
          <path d="M2594.54,810.11v-9.85h-27.58v9.85c-6.55,2.03-11.26,7.54-11.26,14.04v59.79c0,3.8,3.47,6.88,7.76,6.88h34.6c4.28,0,7.76-3.08,7.76-6.88v-59.79c0-6.5-4.71-12.02-11.26-14.04Z" style="fill: #b6ffd9;"/>
          <path d="M2559.45,796.27h42.6v4.1c0,.53-.43.96-.96.96h-40.68c-.53,0-.96-.43-.96-.96v-4.1h0Z" style="fill: #cecccc;"/>
          <rect x="2559.46" y="795.03" width="42.58" height="1.7" style="fill: #7a7a7a;"/>
          <rect x="2555.84" y="827.99" width="49.8" height="50.57" style="fill: #fff;"/>
          <g>
            <circle cx="2580.9" cy="854.12" r="16.63" style="fill: none; stroke: #1b836b; stroke-miterlimit: 10; stroke-width: .57px;"/>
            <path d="M2590.91,849.3h-5.19v-5.19c0-.68-.55-1.23-1.23-1.23h-7.18c-.68,0-1.23.55-1.23,1.23v5.19h-5.19c-.68,0-1.23.55-1.23,1.23v7.18c0,.68.55,1.23,1.23,1.23h5.19v5.19c0,.68.55,1.23,1.23,1.23h7.18c.68,0,1.23-.55,1.23-1.23v-5.19h5.19c.68,0,1.23-.55,1.23-1.23v-7.18c0-.68-.55-1.23-1.23-1.23Z" style="fill: #1b836b;"/>
          </g>
        </g>
        <g>
          <path d="M2652.91,810.11v-9.85h-27.58v9.85c-6.55,2.03-11.26,7.54-11.26,14.04v59.79c0,3.8,3.47,6.88,7.76,6.88h34.6c4.28,0,7.76-3.08,7.76-6.88v-59.79c0-6.5-4.71-12.02-11.26-14.04Z" style="fill: #b6ffd9;"/>
          <path d="M2617.82,796.27h42.6v4.1c0,.53-.43.96-.96.96h-40.68c-.53,0-.96-.43-.96-.96v-4.1h0Z" style="fill: #cecccc;"/>
          <rect x="2617.83" y="795.03" width="42.58" height="1.7" style="fill: #7a7a7a;"/>
          <rect x="2614.22" y="827.99" width="49.8" height="50.57" style="fill: #fff;"/>
          <g>
            <circle cx="2639.27" cy="854.12" r="16.63" style="fill: none; stroke: #1b836b; stroke-miterlimit: 10; stroke-width: .57px;"/>
            <path d="M2649.28,849.3h-5.19v-5.19c0-.68-.55-1.23-1.23-1.23h-7.18c-.68,0-1.23.55-1.23,1.23v5.19h-5.19c-.68,0-1.23.55-1.23,1.23v7.18c0,.68.55,1.23,1.23,1.23h5.19v5.19c0,.68.55,1.23,1.23,1.23h7.18c.68,0,1.23-.55,1.23-1.23v-5.19h5.19c.68,0,1.23-.55,1.23-1.23v-7.18c0-.68-.55-1.23-1.23-1.23Z" style="fill: #1b836b;"/>
          </g>
        </g>
        <g>
          <path d="M2711.57,810.11v-9.85h-27.58v9.85c-6.55,2.03-11.26,7.54-11.26,14.04v59.79c0,3.8,3.47,6.88,7.76,6.88h34.6c4.28,0,7.76-3.08,7.76-6.88v-59.79c0-6.5-4.71-12.02-11.26-14.04Z" style="fill: #b6ffd9;"/>
          <path d="M2676.47,796.27h42.6v4.1c0,.53-.43.96-.96.96h-40.68c-.53,0-.96-.43-.96-.96v-4.1h0Z" style="fill: #cecccc;"/>
          <rect x="2676.48" y="795.03" width="42.58" height="1.7" style="fill: #7a7a7a;"/>
          <rect x="2672.87" y="827.99" width="49.8" height="50.57" style="fill: #fff;"/>
          <g>
            <circle cx="2697.93" cy="854.12" r="16.63" style="fill: none; stroke: #1b836b; stroke-miterlimit: 10; stroke-width: .57px;"/>
            <path d="M2707.94,849.3h-5.19v-5.19c0-.68-.55-1.23-1.23-1.23h-7.18c-.68,0-1.23.55-1.23,1.23v5.19h-5.19c-.68,0-1.23.55-1.23,1.23v7.18c0,.68.55,1.23,1.23,1.23h5.19v5.19c0,.68.55,1.23,1.23,1.23h7.18c.68,0,1.23-.55,1.23-1.23v-5.19h5.19c.68,0,1.23-.55,1.23-1.23v-7.18c0-.68-.55-1.23-1.23-1.23Z" style="fill: #1b836b;"/>
          </g>
        </g>
        <g>
          <path d="M2770.06,810.11v-9.85h-27.58v9.85c-6.55,2.03-11.26,7.54-11.26,14.04v59.79c0,3.8,3.47,6.88,7.76,6.88h34.6c4.28,0,7.76-3.08,7.76-6.88v-59.79c0-6.5-4.71-12.02-11.26-14.04Z" style="fill: #b6ffd9;"/>
          <path d="M2734.97,796.27h42.6v4.1c0,.53-.43.96-.96.96h-40.68c-.53,0-.96-.43-.96-.96v-4.1h0Z" style="fill: #cecccc;"/>
          <rect x="2734.98" y="795.03" width="42.58" height="1.7" style="fill: #7a7a7a;"/>
          <rect x="2731.37" y="827.99" width="49.8" height="50.57" style="fill: #fff;"/>
          <g>
            <circle cx="2756.42" cy="854.12" r="16.63" style="fill: none; stroke: #1b836b; stroke-miterlimit: 10; stroke-width: .57px;"/>
            <path d="M2766.43,849.3h-5.19v-5.19c0-.68-.55-1.23-1.23-1.23h-7.18c-.68,0-1.23.55-1.23,1.23v5.19h-5.19c-.68,0-1.23.55-1.23,1.23v7.18c0,.68.55,1.23,1.23,1.23h5.19v5.19c0,.68.55,1.23,1.23,1.23h7.18c.68,0,1.23-.55,1.23-1.23v-5.19h5.19c.68,0,1.23-.55,1.23-1.23v-7.18c0-.68-.55-1.23-1.23-1.23Z" style="fill: #1b836b;"/>
          </g>
        </g>
      </g>
      <path d="M2796.84,891.47v-.02h-315.64v18.88h11.05c4.27,0,7.73-3.46,7.73-7.73v-5.09h278.53v5.1c0,4.27,3.46,7.73,7.73,7.73h11.05v-18.88h-.45Z" style="fill: #fff;"/>
    </g>
    <g>
      <g>
        <g>
          <path d="M2536.04,672.46v-9.85h-27.58v9.85c-6.55,2.03-11.26,7.54-11.26,14.04v59.79c0,3.8,3.47,6.88,7.76,6.88h34.6c4.28,0,7.76-3.08,7.76-6.88v-59.79c0-6.5-4.71-12.02-11.26-14.04Z" style="fill: #b6ffd9;"/>
          <path d="M2500.95,658.63h42.6v4.1c0,.53-.43.96-.96.96h-40.68c-.53,0-.96-.43-.96-.96v-4.1h0Z" style="fill: #cecccc;"/>
          <rect x="2500.96" y="657.38" width="42.58" height="1.7" style="fill: #7a7a7a;"/>
          <rect x="2497.35" y="690.35" width="49.8" height="50.57" style="fill: #fff;"/>
          <g>
            <circle cx="2522.4" cy="716.47" r="16.63" style="fill: none; stroke: #1b836b; stroke-miterlimit: 10; stroke-width: .57px;"/>
            <path d="M2532.41,711.66h-5.19v-5.19c0-.68-.55-1.23-1.23-1.23h-7.18c-.68,0-1.23.55-1.23,1.23v5.19h-5.19c-.68,0-1.23.55-1.23,1.23v7.18c0,.68.55,1.23,1.23,1.23h5.19v5.19c0,.68.55,1.23,1.23,1.23h7.18c.68,0,1.23-.55,1.23-1.23v-5.19h5.19c.68,0,1.23-.55,1.23-1.23v-7.18c0-.68-.55-1.23-1.23-1.23Z" style="fill: #1b836b;"/>
          </g>
        </g>
        <g>
          <path d="M2594.54,672.46v-9.85h-27.58v9.85c-6.55,2.03-11.26,7.54-11.26,14.04v59.79c0,3.8,3.47,6.88,7.76,6.88h34.6c4.28,0,7.76-3.08,7.76-6.88v-59.79c0-6.5-4.71-12.02-11.26-14.04Z" style="fill: #b6ffd9;"/>
          <path d="M2559.45,658.63h42.6v4.1c0,.53-.43.96-.96.96h-40.68c-.53,0-.96-.43-.96-.96v-4.1h0Z" style="fill: #cecccc;"/>
          <rect x="2559.46" y="657.38" width="42.58" height="1.7" style="fill: #7a7a7a;"/>
          <rect x="2555.84" y="690.35" width="49.8" height="50.57" style="fill: #fff;"/>
          <g>
            <circle cx="2580.9" cy="716.47" r="16.63" style="fill: none; stroke: #1b836b; stroke-miterlimit: 10; stroke-width: .57px;"/>
            <path d="M2590.91,711.66h-5.19v-5.19c0-.68-.55-1.23-1.23-1.23h-7.18c-.68,0-1.23.55-1.23,1.23v5.19h-5.19c-.68,0-1.23.55-1.23,1.23v7.18c0,.68.55,1.23,1.23,1.23h5.19v5.19c0,.68.55,1.23,1.23,1.23h7.18c.68,0,1.23-.55,1.23-1.23v-5.19h5.19c.68,0,1.23-.55,1.23-1.23v-7.18c0-.68-.55-1.23-1.23-1.23Z" style="fill: #1b836b;"/>
          </g>
        </g>
        <g>
          <path d="M2652.91,672.46v-9.85h-27.58v9.85c-6.55,2.03-11.26,7.54-11.26,14.04v59.79c0,3.8,3.47,6.88,7.76,6.88h34.6c4.28,0,7.76-3.08,7.76-6.88v-59.79c0-6.5-4.71-12.02-11.26-14.04Z" style="fill: #b6ffd9;"/>
          <path d="M2617.82,658.63h42.6v4.1c0,.53-.43.96-.96.96h-40.68c-.53,0-.96-.43-.96-.96v-4.1h0Z" style="fill: #cecccc;"/>
          <rect x="2617.83" y="657.38" width="42.58" height="1.7" style="fill: #7a7a7a;"/>
          <rect x="2614.22" y="690.35" width="49.8" height="50.57" style="fill: #fff;"/>
          <g>
            <circle cx="2639.27" cy="716.47" r="16.63" style="fill: none; stroke: #1b836b; stroke-miterlimit: 10; stroke-width: .57px;"/>
            <path d="M2649.28,711.66h-5.19v-5.19c0-.68-.55-1.23-1.23-1.23h-7.18c-.68,0-1.23.55-1.23,1.23v5.19h-5.19c-.68,0-1.23.55-1.23,1.23v7.18c0,.68.55,1.23,1.23,1.23h5.19v5.19c0,.68.55,1.23,1.23,1.23h7.18c.68,0,1.23-.55,1.23-1.23v-5.19h5.19c.68,0,1.23-.55,1.23-1.23v-7.18c0-.68-.55-1.23-1.23-1.23Z" style="fill: #1b836b;"/>
          </g>
        </g>
        <g>
          <path d="M2711.57,672.46v-9.85h-27.58v9.85c-6.55,2.03-11.26,7.54-11.26,14.04v59.79c0,3.8,3.47,6.88,7.76,6.88h34.6c4.28,0,7.76-3.08,7.76-6.88v-59.79c0-6.5-4.71-12.02-11.26-14.04Z" style="fill: #b6ffd9;"/>
          <path d="M2676.47,658.63h42.6v4.1c0,.53-.43.96-.96.96h-40.68c-.53,0-.96-.43-.96-.96v-4.1h0Z" style="fill: #cecccc;"/>
          <rect x="2676.48" y="657.38" width="42.58" height="1.7" style="fill: #7a7a7a;"/>
          <rect x="2672.87" y="690.35" width="49.8" height="50.57" style="fill: #fff;"/>
          <g>
            <circle cx="2697.93" cy="716.47" r="16.63" style="fill: none; stroke: #1b836b; stroke-miterlimit: 10; stroke-width: .57px;"/>
            <path d="M2707.94,711.66h-5.19v-5.19c0-.68-.55-1.23-1.23-1.23h-7.18c-.68,0-1.23.55-1.23,1.23v5.19h-5.19c-.68,0-1.23.55-1.23,1.23v7.18c0,.68.55,1.23,1.23,1.23h5.19v5.19c0,.68.55,1.23,1.23,1.23h7.18c.68,0,1.23-.55,1.23-1.23v-5.19h5.19c.68,0,1.23-.55,1.23-1.23v-7.18c0-.68-.55-1.23-1.23-1.23Z" style="fill: #1b836b;"/>
          </g>
        </g>
        <g>
          <path d="M2770.06,672.46v-9.85h-27.58v9.85c-6.55,2.03-11.26,7.54-11.26,14.04v59.79c0,3.8,3.47,6.88,7.76,6.88h34.6c4.28,0,7.76-3.08,7.76-6.88v-59.79c0-6.5-4.71-12.02-11.26-14.04Z" style="fill: #b6ffd9;"/>
          <path d="M2734.97,658.63h42.6v4.1c0,.53-.43.96-.96.96h-40.68c-.53,0-.96-.43-.96-.96v-4.1h0Z" style="fill: #cecccc;"/>
          <rect x="2734.98" y="657.38" width="42.58" height="1.7" style="fill: #7a7a7a;"/>
          <rect x="2731.37" y="690.35" width="49.8" height="50.57" style="fill: #fff;"/>
          <g>
            <circle cx="2756.42" cy="716.47" r="16.63" style="fill: none; stroke: #1b836b; stroke-miterlimit: 10; stroke-width: .57px;"/>
            <path d="M2766.43,711.66h-5.19v-5.19c0-.68-.55-1.23-1.23-1.23h-7.18c-.68,0-1.23.55-1.23,1.23v5.19h-5.19c-.68,0-1.23.55-1.23,1.23v7.18c0,.68.55,1.23,1.23,1.23h5.19v5.19c0,.68.55,1.23,1.23,1.23h7.18c.68,0,1.23-.55,1.23-1.23v-5.19h5.19c.68,0,1.23-.55,1.23-1.23v-7.18c0-.68-.55-1.23-1.23-1.23Z" style="fill: #1b836b;"/>
          </g>
        </g>
      </g>
      <path d="M2796.84,754.13v-.02h-315.64v18.88h11.05c4.27,0,7.73-3.46,7.73-7.73v-5.09h278.53v5.1c0,4.27,3.46,7.73,7.73,7.73h11.05v-18.88h-.45Z" style="fill: #fff;"/>
    </g>
    <g>
      <g>
        <g>
          <path d="M2536.04,530.39v-9.85h-27.58v9.85c-6.55,2.03-11.26,7.54-11.26,14.04v59.79c0,3.8,3.47,6.88,7.76,6.88h34.6c4.28,0,7.76-3.08,7.76-6.88v-59.79c0-6.5-4.71-12.02-11.26-14.04Z" style="fill: #b6ffd9;"/>
          <path d="M2500.95,516.55h42.6v4.1c0,.53-.43.96-.96.96h-40.68c-.53,0-.96-.43-.96-.96v-4.1h0Z" style="fill: #cecccc;"/>
          <rect x="2500.96" y="515.31" width="42.58" height="1.7" style="fill: #7a7a7a;"/>
          <rect x="2497.35" y="548.27" width="49.8" height="50.57" style="fill: #fff;"/>
          <g>
            <circle cx="2522.4" cy="574.4" r="16.63" style="fill: none; stroke: #1b836b; stroke-miterlimit: 10; stroke-width: .57px;"/>
            <path d="M2532.41,569.58h-5.19v-5.19c0-.68-.55-1.23-1.23-1.23h-7.18c-.68,0-1.23.55-1.23,1.23v5.19h-5.19c-.68,0-1.23.55-1.23,1.23v7.18c0,.68.55,1.23,1.23,1.23h5.19v5.19c0,.68.55,1.23,1.23,1.23h7.18c.68,0,1.23-.55,1.23-1.23v-5.19h5.19c.68,0,1.23-.55,1.23-1.23v-7.18c0-.68-.55-1.23-1.23-1.23Z" style="fill: #1b836b;"/>
          </g>
        </g>
        <g>
          <path d="M2594.54,530.39v-9.85h-27.58v9.85c-6.55,2.03-11.26,7.54-11.26,14.04v59.79c0,3.8,3.47,6.88,7.76,6.88h34.6c4.28,0,7.76-3.08,7.76-6.88v-59.79c0-6.5-4.71-12.02-11.26-14.04Z" style="fill: #b6ffd9;"/>
          <path d="M2559.45,516.55h42.6v4.1c0,.53-.43.96-.96.96h-40.68c-.53,0-.96-.43-.96-.96v-4.1h0Z" style="fill: #cecccc;"/>
          <rect x="2559.46" y="515.31" width="42.58" height="1.7" style="fill: #7a7a7a;"/>
          <rect x="2555.84" y="548.27" width="49.8" height="50.57" style="fill: #fff;"/>
          <g>
            <circle cx="2580.9" cy="574.4" r="16.63" style="fill: none; stroke: #1b836b; stroke-miterlimit: 10; stroke-width: .57px;"/>
            <path d="M2590.91,569.58h-5.19v-5.19c0-.68-.55-1.23-1.23-1.23h-7.18c-.68,0-1.23.55-1.23,1.23v5.19h-5.19c-.68,0-1.23.55-1.23,1.23v7.18c0,.68.55,1.23,1.23,1.23h5.19v5.19c0,.68.55,1.23,1.23,1.23h7.18c.68,0,1.23-.55,1.23-1.23v-5.19h5.19c.68,0,1.23-.55,1.23-1.23v-7.18c0-.68-.55-1.23-1.23-1.23Z" style="fill: #1b836b;"/>
          </g>
        </g>
        <g>
          <path d="M2652.91,530.39v-9.85h-27.58v9.85c-6.55,2.03-11.26,7.54-11.26,14.04v59.79c0,3.8,3.47,6.88,7.76,6.88h34.6c4.28,0,7.76-3.08,7.76-6.88v-59.79c0-6.5-4.71-12.02-11.26-14.04Z" style="fill: #b6ffd9;"/>
          <path d="M2617.82,516.55h42.6v4.1c0,.53-.43.96-.96.96h-40.68c-.53,0-.96-.43-.96-.96v-4.1h0Z" style="fill: #cecccc;"/>
          <rect x="2617.83" y="515.31" width="42.58" height="1.7" style="fill: #7a7a7a;"/>
          <rect x="2614.22" y="548.27" width="49.8" height="50.57" style="fill: #fff;"/>
          <g>
            <circle cx="2639.27" cy="574.4" r="16.63" style="fill: none; stroke: #1b836b; stroke-miterlimit: 10; stroke-width: .57px;"/>
            <path d="M2649.28,569.58h-5.19v-5.19c0-.68-.55-1.23-1.23-1.23h-7.18c-.68,0-1.23.55-1.23,1.23v5.19h-5.19c-.68,0-1.23.55-1.23,1.23v7.18c0,.68.55,1.23,1.23,1.23h5.19v5.19c0,.68.55,1.23,1.23,1.23h7.18c.68,0,1.23-.55,1.23-1.23v-5.19h5.19c.68,0,1.23-.55,1.23-1.23v-7.18c0-.68-.55-1.23-1.23-1.23Z" style="fill: #1b836b;"/>
          </g>
        </g>
        <g>
          <path d="M2711.57,530.39v-9.85h-27.58v9.85c-6.55,2.03-11.26,7.54-11.26,14.04v59.79c0,3.8,3.47,6.88,7.76,6.88h34.6c4.28,0,7.76-3.08,7.76-6.88v-59.79c0-6.5-4.71-12.02-11.26-14.04Z" style="fill: #b6ffd9;"/>
          <path d="M2676.47,516.55h42.6v4.1c0,.53-.43.96-.96.96h-40.68c-.53,0-.96-.43-.96-.96v-4.1h0Z" style="fill: #cecccc;"/>
          <rect x="2676.48" y="515.31" width="42.58" height="1.7" style="fill: #7a7a7a;"/>
          <rect x="2672.87" y="548.27" width="49.8" height="50.57" style="fill: #fff;"/>
          <g>
            <circle cx="2697.93" cy="574.4" r="16.63" style="fill: none; stroke: #1b836b; stroke-miterlimit: 10; stroke-width: .57px;"/>
            <path d="M2707.94,569.58h-5.19v-5.19c0-.68-.55-1.23-1.23-1.23h-7.18c-.68,0-1.23.55-1.23,1.23v5.19h-5.19c-.68,0-1.23.55-1.23,1.23v7.18c0,.68.55,1.23,1.23,1.23h5.19v5.19c0,.68.55,1.23,1.23,1.23h7.18c.68,0,1.23-.55,1.23-1.23v-5.19h5.19c.68,0,1.23-.55,1.23-1.23v-7.18c0-.68-.55-1.23-1.23-1.23Z" style="fill: #1b836b;"/>
          </g>
        </g>
        <g>
          <path d="M2770.06,530.39v-9.85h-27.58v9.85c-6.55,2.03-11.26,7.54-11.26,14.04v59.79c0,3.8,3.47,6.88,7.76,6.88h34.6c4.28,0,7.76-3.08,7.76-6.88v-59.79c0-6.5-4.71-12.02-11.26-14.04Z" style="fill: #b6ffd9;"/>
          <path d="M2734.97,516.55h42.6v4.1c0,.53-.43.96-.96.96h-40.68c-.53,0-.96-.43-.96-.96v-4.1h0Z" style="fill: #cecccc;"/>
          <rect x="2734.98" y="515.31" width="42.58" height="1.7" style="fill: #7a7a7a;"/>
          <rect x="2731.37" y="548.27" width="49.8" height="50.57" style="fill: #fff;"/>
          <g>
            <circle cx="2756.42" cy="574.4" r="16.63" style="fill: none; stroke: #1b836b; stroke-miterlimit: 10; stroke-width: .57px;"/>
            <path d="M2766.43,569.58h-5.19v-5.19c0-.68-.55-1.23-1.23-1.23h-7.18c-.68,0-1.23.55-1.23,1.23v5.19h-5.19c-.68,0-1.23.55-1.23,1.23v7.18c0,.68.55,1.23,1.23,1.23h5.19v5.19c0,.68.55,1.23,1.23,1.23h7.18c.68,0,1.23-.55,1.23-1.23v-5.19h5.19c.68,0,1.23-.55,1.23-1.23v-7.18c0-.68-.55-1.23-1.23-1.23Z" style="fill: #1b836b;"/>
          </g>
        </g>
      </g>
      <path d="M2796.84,611.67v-.02h-315.64v18.88h11.05c4.27,0,7.73-3.46,7.73-7.73v-5.09h278.53v5.1c0,4.27,3.46,7.73,7.73,7.73h11.05v-18.88h-.45Z" style="fill: #fff;"/>
    </g>
    <rect x="2481.13" y="467.73" width="315.97" height="483.42" rx="10.58" ry="10.58" style="fill: #14b7dd; opacity: .13;"/>
    <polygon points="2727.76 466.86 2672.18 950.53 2645.58 950.45 2700.82 466.95 2727.76 466.86" style="fill: #fff; opacity: .53;"/>
    <polygon points="2756.95 467.01 2700.23 950.38 2684.58 950.38 2739.82 466.9 2756.95 467.01" style="fill: #fff; opacity: .53;"/>
    <g>
      <path d="M2927.93,303.8c-41.42,0-75,33.81-75,75.51s33.58,75.51,75,75.51,75-33.81,75-75.51-33.58-75.51-75-75.51ZM2927.93,443.69c-35.32,0-63.95-28.83-63.95-64.38s28.63-64.38,63.95-64.38,63.95,28.83,63.95,64.38-28.63,64.38-63.95,64.38Z" style="fill: #098276;"/>
      <text transform="translate(2889.25 421.8) scale(.92 1)" style="fill: #098276; font-family: CenturyGothic-Bold, &apos;Century Gothic&apos;; font-size: 47.23px; font-weight: 700;"><tspan x="0" y="0">24H</tspan></text>
      <circle cx="2929.47" cy="363.29" r="9.46" style="fill: #098276;"/>
      <rect x="2901.96" y="359.34" width="29.94" height="9.21" rx="1.54" ry="1.54" style="fill: #098276;"/>
      <rect x="2908.38" y="334.84" width="42.39" height="10.35" rx="1.47" ry="1.47" transform="translate(3269.59 -2589.56) rotate(90)" style="fill: #098276;"/>
    </g>
  </g>
  <g>
    <path d="M1405.07,708.31c3.05-43.62-8.81-84.64-21.96-125.43-20.4-9.13-32.28-27.13-45.92-43.47-13.69-16.4-32.88-24.93-51.78-33.62-4.23-2.1-8.47-4.2-12.7-6.3-5.3-3.51-9.24-1.91-12.25,3.24-2.5,15.19-.64,30.51-1.17,45.76-.43,12.51,5.64,16.31,15.77,13.62-13.34-2.27-16.26,6.02-15.92,18.56,1.12,40.72-1.62,81.5,1.48,122.21,3.47,6.32,8.72,7.13,14.97,4.85,7.42-5.16,6.76-13.1,7.15-20.73,1.31-25.57-3.09-50.97-2.09-76.56.75-19.11,4.52-23.31,23.6-23.23,14.76.06,29.44-.12,44.17,2.72,8.84,1.7,13.39,4.93,15.4,13.8,6.33,27.87,11.59,55.77,10.26,84.59-.37,8-1.13,16.63,6.26,22.77,8.92,5.08,17.3,5.32,24.73-2.78Z" style="fill: #42aa96;"/>
    <path d="M830.53,727.31c1.22,16.54-3.45,33.77,5.79,49.37,5.68-2.38,5.83-7.65,6.99-12.65,2.86-12.3,11.26-19.46,23.28-21.42,11.94-1.95,22.17,2.24,29.57,12.21,4.47,6.02,6.56,14.15,14.96,16.71,14.61,3.86,29.48,1.89,44.22,2.06,27.07.3,54.15.24,81.22-.01,7.61-.07,15.46.54,22.05-4.66,8.45-15.26,4.38-29.74-2.72-44.06-5.63-4.26-12.27-4.58-18.92-4.61-62.13-.29-124.25-.29-186.38.04-6.97.04-14.56-.82-19.42,6.26l-.63.76Z" style="fill: #098276;"/>
    <path d="M909.01,768.1c-4.15-18.33-14.6-29.77-29.1-31.87-21.47-3.11-41.9,8.68-43.02,31.36-.24,4.92-.47,9.88.34,14.73,1.87,11.14,10.53,19.15,20.64,23.28,9.81,3.07,19.59,3.56,29.32-.31,15.42-7.53,21.42-17.25,21.81-37.2Z" style="fill: #242021;"/>
    <path d="M1098.88,725.96c-.73.47-1.54.73-2.41.79-12.62,12.85-8.58,26.93-3.08,41.14,3.54,3.11,7.67,5.13,12.39,5.17,43.19.37,86.39,2.35,129.52-1.01,6.3-1.75,10.07-6.4,13.56-11.63,16.43-24.61,37.79-25.32,54.93-1.88,2.72,3.72,5.02,7.78,10.11,8.68,1.86-.11,3.72-.22,5.58-.33,10.65-9,6.81-19.32,1.52-28.69-8.16-14.45-21.59-20.84-37.97-20.74-11.21.07-19.77-3.57-23.89-14.72-2.62.02-5.25.03-7.87.05-4.95,13.3-14.45,17.85-28.55,17.58-34.13-.66-68.28-.34-102.43-.13-7.58.05-15.47-.66-21.41,5.71Z" style="fill: #098276;"/>
    <path d="M1316.58,766.75c-5.03-26.29-29.95-38.48-52.18-28.79-11.37,4.96-19.14,17.07-20.42,28.59-2.15,19.38,10.08,32.82,23.58,37.64,17.45,6.23,38.71-4.35,46.22-20.84,2.59-5.7,3.79-11.37,2.79-16.59Z" style="fill: #242021;"/>
    <path d="M1338.11,751.77c-.38-5.74-1.98-11.1-4.88-16.08-1.26-24.27-36.75-43.09-57.12-30.29-4.4,0-8.91.57-12.61-2.7-.54-.19-1.08-.39-1.63-.58,0,0-.32.63-.32.63q-.76,21.41,20.29,21.57c30.23.22,40.97,11.64,40.06,42.59,3.63,5.96,9.39,6.38,15.48,5.98,3.2-6.93,1.81-14.02.73-21.1Z" style="fill: #174b39;"/>
    <path d="M1380.53,732.75c.1-7.9.2-15.81.29-23.71,1.83-36.03-4.03-71.13-12.34-106.02-2.54-10.67-7.05-16.37-19.07-17.89-15.28-1.92-30.48-2.24-45.77-2.68-20.89-.61-27.32,5.13-27.45,26.35-.19,32.2-.07,64.4-.08,96.6,24.95-1.04,43.29,10.37,57.12,30.29,15.45-6.08,31.6-.91,47.3-2.95Z" style="fill: #098276;"/>
    <path d="M1261.88,702.12c.51.28,1.06.48,1.63.58.13-39.92.52-79.85.25-119.77-.08-12.2.42-22.4,18.92-19.91-18.49.85-19.68-9.21-18.94-21.9.74-12.75.12-25.58.09-38.38-.88,2.86-2.53,5.72-2.53,8.58.08,63.6.35,127.2.58,190.8Z" style="fill: #1b836b;"/>
    <path d="M1085.71,725.96c52.13.22,104.27.76,156.4.5,21.22-.1,9.05-15.17,11.47-23.66-.72-.31-1.47-.52-2.25-.64-5.63,4.86-12.71,3.28-19.27,3.3-41.59.12-83.19.04-124.78.07q-22.2.01-21.56,20.43Z" style="fill: #098276;"/>
    <path d="M831.16,726.55c74.34,0,148.67.02,223.01.03,8.59-7.91,8.01-14.91-2.09-20.95-121.33-.03-242.66-.09-363.99-.01-5.36,0-11.66-2.02-15.59,3.62-2.15,3.07-1.93,6.93-.37,10.32,2.49,5.38,7.7,4.26,12.11,4.27,43,.1,86.01.04,129.01.11,6.06.01,12.36-1.07,17.92,2.62Z" style="fill: #098276;"/>
    <path d="M849.35,771.26c-.07,11.72,10.72,22.51,22.47,22.47,10.91-.04,22.16-11.84,22.08-23.16-.08-10.6-12.53-22.07-23.57-21.69-10.68.37-20.92,11.29-20.99,22.38Z" style="fill: #424142;"/>
    <path d="M1257.7,771.26c.42,12.73,10.62,22.68,22.55,22.01,11.75-.66,20.7-10.33,20.54-22.2-.15-11.91-11.12-22.77-22.42-22.19-11.01.57-21.04,11.42-20.68,22.38Z" style="fill: #424242;"/>
    <path d="M1285.67,621.11q-.46,28.72,27.57,34.37c14.48,2.89,29.05,5.34,43.49,8.41,9.05,1.93,13.07-1.91,11.86-10.34-2.38-16.61-5.32-33.15-8.55-49.61-1.78-9.09-9.03-11.44-17.29-12-10.16-.69-20.32-1.55-30.46-2.51-21.64-2.06-26.16,1.98-26.61,24.03-.05,2.55,0,5.1,0,7.65Z" style="fill: #b4c4d8;"/>
    <path d="M871.76,786.69c8.66-.68,14.75-5.22,15.13-14.9.39-9.77-5.78-15.62-14.7-16.02-9.09-.41-15.72,5.61-16.01,14.87-.28,9.15,5.4,14.89,15.58,16.04Z" style="fill: #f5f5f4;"/>
    <path d="M1263.7,771.08c.79,9.1,5.75,15.08,15.19,15.29,9.38.21,15.44-5.26,15.71-14.81.27-9.61-5.78-15.45-14.92-15.7-9.18-.26-14.79,5.44-15.97,15.23Z" style="fill: #f4f4f3;"/>
    <path d="M872.31,764.43c-4.07.47-7.06,2.85-7.37,6.56-.34,4.08,3.22,6.64,6.81,6.89,3.06.21,5.85-2.27,6.33-5.65.6-4.22-2.29-6.33-5.77-7.79Z" style="fill: #58565a;"/>
    <path d="M1279,777.76c3.99-.35,6.49-2.66,6.72-6.58.2-3.39-2.35-5.89-5.33-6.39-3.9-.66-6.84,1.71-7.42,5.68-.63,4.23,2.27,6.2,6.03,7.29Z" style="fill: #59565a;"/>
    <polygon points="920.38 772.59 1225.92 771.68 1217.58 539.19 936.29 539.19 920.38 772.59" style="fill: #098276;"/>
    <path d="M1251.45,495.54c.07,71.95.14,143.9.21,215.84-1.46,11.57-10.38,10.03-17.53,10.18-33.76.71-67.53.66-101.28.1-13.39-.22-24.15,2.59-30.71,15.68-1.8,1.01-3.58.98-5.35-.09-9.55-12.93-4.51-27.62-4.59-41.71.49-16.21-7.09-34.66,11.95-45.61,1.19-.69,1.65-2.9,1.4-4.41-2.48-14.7.32-31.87-17.01-39.73-3.79-1.72-6.74-4.76-8.87-8.53-3.34-7.21-2.21-14.33.37-21.44,1.01-5.11,3.03-10.9-4-12.84-4.76-1.31-9.22-.46-9.28,6.44.41,8.98,6.08,17.25,3.33,26.68-8.39,10.99-21.93,18.08-23.68,34.06-9.42,5.3-11.47,13.06-8,23.42,1.77,5.3,2.97,10.98,2.64,16.78.63,4.64-1.37,8.71-2.64,13.02-.09.93-.31,1.76-.26,2.61.09-1.04.24-2.08.42-3.09,2.55-5.1,1.85-12.23,8.39-14.87,2.86-.49,5.38.2,7.39,2.48,5.58,7.02,3.21,15.3,3.35,23.17.4,8.27,1.78,16.77-4.86,23.45-8.59,6.79-18.66,4.65-28.14,4.67-53.27.11-106.54.14-159.81.14v10.76h-35.22c.45.61.88,1.26,1.28,2.01-.14.98-.27,1.97-.41,2.95-49.04-.14-98.09-.62-147.12-.16-11.98.11-15.82-3.58-15.71-16.31.63-75.21.53-150.42.66-225.63h583.1Z" style="fill: #098276;"/>
    <rect x="1032.23" y="742.58" width="94.12" height="30.46" transform="translate(2158.58 1515.62) rotate(-180)" style="fill: #098276;"/>
    <g>
      <path d="M774.51,595.34v54.22h-5.83v-54.22h5.83Z" style="fill: #fff;"/>
      <path d="M802.24,595.34v9.43h.24c4.52-6.99,10.47-10.49,17.86-10.49,6.13,0,11.02,1.97,14.68,5.89,3.65,3.93,5.48,9.37,5.48,16.33v33.06h-5.78v-30.88c0-12.5-4.91-18.74-14.73-18.74-7.19,0-13.11,3.87-17.74,11.61v38.01h-5.78v-54.22h5.78Z" style="fill: #fff;"/>
      <path d="M891.49,598.88v6.25c-5.5-3.69-10.45-5.54-14.85-5.54-3.26,0-6.01.88-8.25,2.65-2.24,1.76-3.36,3.94-3.36,6.52,0,1.84.68,3.54,2.04,5.08,1.36,1.55,5.12,3.51,11.26,5.88,6.14,2.37,10.16,4.84,12.04,7.39,1.89,2.56,2.83,5.4,2.83,8.55,0,4.21-1.71,7.75-5.13,10.64-3.42,2.89-7.64,4.33-12.67,4.33-5.46,0-10.88-1.65-16.27-4.95v-5.66c6.4,3.3,12.08,4.95,17.03,4.95,3.34,0,6.08-.88,8.22-2.65,2.14-1.77,3.21-4.02,3.21-6.77,0-1.88-.7-3.62-2.09-5.21-1.4-1.59-5.17-3.6-11.32-6.04-6.15-2.44-10.13-4.85-11.96-7.22-1.83-2.38-2.74-5.02-2.74-7.93,0-4.13,1.7-7.63,5.1-10.52,3.4-2.89,7.53-4.33,12.41-4.33,4.44,0,9.27,1.53,14.5,4.6Z" style="fill: #fff;"/>
      <path d="M956.64,620.45h-42.73c-.12.94-.18,1.89-.18,2.83,0,6.05,2.16,11.18,6.48,15.38,4.32,4.21,9.43,6.3,15.32,6.3,6.88,0,13.6-2.69,20.16-8.07v6.54c-6.21,4.79-13.16,7.19-20.86,7.19s-14.28-2.71-19.39-8.13c-5.11-5.42-7.66-12.32-7.66-20.69,0-7.94,2.36-14.51,7.07-19.72,4.72-5.21,10.65-7.81,17.8-7.81,6.72,0,12.4,2.35,17.03,7.04,4.64,4.69,6.96,11.07,6.96,19.12ZM914.67,615.79h35.13c-2.04-10.57-7.76-15.85-17.15-15.85-4.44,0-8.28,1.39-11.52,4.16-3.24,2.77-5.39,6.67-6.45,11.7Z" style="fill: #fff;"/>
      <path d="M1011.83,600.71l-3.36,5.42c-4.52-4.12-8.15-6.19-10.9-6.19-5.42,0-11.22,5.19-17.39,15.56v34.07h-5.78v-54.22h5.78v14.26h.24c6.48-10.22,12.81-15.32,18.98-15.32,3.54,0,7.68,2.14,12.44,6.42Z" style="fill: #fff;"/>
      <path d="M1093.26,595.34v54.22h-5.83v-54.22h5.83Z" style="fill: #fff;"/>
      <path d="M1140.44,594.28c7.86,0,14.41,2.69,19.65,8.07,5.25,5.38,7.87,12.1,7.87,20.16s-2.62,14.7-7.87,20.07c-5.24,5.36-11.8,8.04-19.65,8.04s-14.43-2.68-19.71-8.04c-5.29-5.36-7.93-12.05-7.93-20.07s2.64-14.77,7.93-20.16c5.28-5.38,11.85-8.07,19.71-8.07ZM1140.44,644.97c6.09,0,11.18-2.13,15.26-6.39,4.09-4.26,6.13-9.62,6.13-16.06s-2.05-11.77-6.16-16.09c-4.11-4.32-9.19-6.48-15.23-6.48s-11.25,2.14-15.35,6.42c-4.11,4.28-6.16,9.67-6.16,16.15s2.05,11.8,6.16,16.06c4.1,4.26,9.22,6.39,15.35,6.39Z" style="fill: #fff;"/>
    </g>
    <path d="M1039.68,599.19c0-1.57.72-2.92,2.15-4.05,1.43-1.13,3.15-1.7,5.17-1.7s3.73.57,5.13,1.7c1.41,1.13,2.11,2.48,2.11,4.05s-.7,2.97-2.11,4.1c-1.4,1.13-3.11,1.7-5.13,1.7s-3.74-.57-5.17-1.7c-1.43-1.13-2.15-2.5-2.15-4.1Z" style="fill: #fff;"/>
    <path d="M1065.53,604.74c-5.11-5.22-11.78-8.09-18.8-8.09-6.56,0-12.92,2.56-17.89,7.2l-2.47-2.64c5.64-5.27,12.87-8.18,20.36-8.18,7.99,0,15.59,3.26,21.38,9.18l-2.59,2.53Z" style="fill: #fff;"/>
    <polygon points="1047.96 654.98 1015.24 582.85 767.67 582.85 767.67 578.63 1017.96 578.63 1047.68 644.15 1073.47 578.63 1093.26 578.63 1093.26 582.85 1076.35 582.85 1047.96 654.98" style="fill: #fff;"/>
  </g>
  <circle cx="2711.13" cy="658.72" r="483.82" style="fill: none; stroke: #bef21c; stroke-miterlimit: 10; stroke-width: 22px;"/>
  <g>
    <circle cx="4388.91" cy="650.22" r="483.82" style="fill: none; stroke: #bef21c; stroke-miterlimit: 10; stroke-width: 22px;"/>
    <path d="M4074.67,412.58l86.98-.13c5.24.44,9.6,4.28,10.35,9.55l.16,476.38c-.47,5.43-2.94,9.61-8.48,10.88l-89.15.13c-4.35-.61-7.81-3.5-8.82-7.87l-.3-478.58c.11-5.38,4-9.51,9.26-10.34Z" style="fill: #098276;"/>
    <path d="M4210.2,571.23l85.9-.13c5.08.46,9.03,2.71,10.46,7.82,1.34,106.55.17,213.34.59,319.98-.45,5.21-2.95,8.78-8.06,10.23l-89.58.24c-4.22-.53-7.49-3.38-8.63-7.5l-.26-320.85c.5-5.64,4.13-8.92,9.57-9.79Z" style="fill: #098276;"/>
    <path d="M4480.18,740.32l86.98-.08c4.91.3,8.4,1.96,9.72,4.82l.26,158.68c-.25,2.55-3.05,4.65-7.11,5.42l-89.99.22c-5.74-.45-9.46-3.17-9.43-6.6v-155.93c.51-3.55,3.59-5.96,9.58-6.52Z" style="fill: #098276;"/>
    <path d="M4344.64,671.26l87.54-.13c4.27.65,8.15,2.93,9.43,7.24.95,74.33.66,149.02.14,223.38-1.28,3.96-4.62,7.55-9.02,7.65l-88.22-.02c-4.02-.36-7.09-3.63-8.36-7.24-1.21-73.57-.14-147.41-.53-221.09.49-5.45,3.85-8.6,9.03-9.8Z" style="fill: #098276;"/>
    <path d="M4616.25,825.25c27.21.69,56.84-1.2,83.77-.09,5.46.22,9.88,1.1,11.83,4.07l.49,74.49c-.02,2.97-4.05,5.49-9.62,5.67h-87.69c-6.08-.46-8.93-2.82-9.43-5.95l.03-72.31c.42-3.45,4.38-5.47,10.63-5.88Z" style="fill: #098276;"/>
    <path d="M4663.67,618.89c-2.48-10.02,12.09-20.27,20.42-13.02,5.23,11.47,40.28,74.42,37.95,81.77-.75,2.38-5.81,6.97-8.16,8.44-10.64,6.67-59.48,30.97-70.1,33.46-16.71,3.92-22.08-18.44-13.36-22.67l40.7-19.7c-133.76-41.83-267.78-117.97-356.45-228.95-18.11-22.66-38.1-51.14-51.63-76.75-4.2-7.95-13.55-22.46-6.66-30.29,5.93-6.74,13.74-6.73,20.23-1.09,47.73,96.12,125.49,171.77,215.49,227.76,59.13,36.79,125.68,67.08,192.82,84.9-4.29-13.51-18.06-31.03-21.24-43.89Z" style="fill: #098276;"/>
  </g>
</svg>