<?xml version="1.0" encoding="UTF-8"?>
<svg id="Layer_1" data-name="Layer 1" xmlns="http://www.w3.org/2000/svg" viewBox="0 0 5425.53 1308.94">
  <defs>
    <style>
      .cls-1 {
        stroke: #098276;
        stroke-width: 8px;
      }

      .cls-1, .cls-2 {
        fill: none;
        stroke-miterlimit: 10;
      }

      .cls-3 {
        fill: #bef21c;
      }

      .cls-2 {
        stroke: #bef21c;
        stroke-width: 22px;
      }

      .cls-4 {
        fill: #098276;
      }
    </style>
  </defs>
  <g>
    <circle class="cls-3" cx="1549.47" cy="673.09" r="23.96"/>
    <circle class="cls-3" cx="1643.83" cy="673.09" r="23.96"/>
    <circle class="cls-3" cx="1738.2" cy="673.09" r="23.96"/>
    <circle class="cls-3" cx="1832.57" cy="673.09" r="23.96"/>
    <circle class="cls-3" cx="1926.94" cy="673.09" r="23.96"/>
    <circle class="cls-3" cx="2021.31" cy="673.09" r="23.96"/>
    <circle class="cls-3" cx="2115.67" cy="673.09" r="23.96"/>
    <circle class="cls-3" cx="2210.04" cy="673.09" r="23.96"/>
  </g>
  <g>
    <circle class="cls-3" cx="3225.61" cy="673.09" r="23.96"/>
    <circle class="cls-3" cx="3319.98" cy="673.09" r="23.96"/>
    <circle class="cls-3" cx="3414.34" cy="673.09" r="23.96"/>
    <circle class="cls-3" cx="3508.71" cy="673.09" r="23.96"/>
    <circle class="cls-3" cx="3603.08" cy="673.09" r="23.96"/>
    <circle class="cls-3" cx="3697.45" cy="673.09" r="23.96"/>
    <circle class="cls-3" cx="3791.82" cy="673.09" r="23.96"/>
    <circle class="cls-3" cx="3886.19" cy="673.09" r="23.96"/>
  </g>
  <g>
    <circle class="cls-2" cx="2712.77" cy="654.47" r="483.82"/>
    <rect class="cls-1" x="2471.61" y="344.62" width="482.32" height="619.7" rx="10.36" ry="10.36"/>
    <g>
      <polygon class="cls-1" points="2618.26 514.28 2650.29 474.49 2681.55 514.28 2689.91 514.28 2654.66 469.73 2684.93 432.15 2684.93 432.15 2689.38 426.62 2680.23 426.62 2650.19 465.24 2620.67 426.62 2612.14 426.62 2616.46 432.15 2616.46 432.15 2645.99 469.87 2609.5 514.28 2618.26 514.28"/>
      <path class="cls-1" d="M2541.41,458.92h19.75l38.4,47.64,6.22,7.72h8.13l-7.43-9.28-37.15-46.41c11.49-.87,19.77-3.59,25.05-8.05,7.16-6.11,10.23-12.1,10.63-21.16.01-.18.03-1.58.02-2.1l-.03-1.86c-.21-8.94-3.28-15.14-10.61-21.4-6.49-5.49-18.17-8.38-33.79-8.38h-26.97v118.64h7.77v-55.36ZM2541.41,402.26h20.46c8.35,0,34.72,1.23,35.16,25.04-.44,23.77-26.81,25-35.16,25h-20.46v-50.04Z"/>
    </g>
    <line class="cls-1" x1="2535.92" y1="613.54" x2="2889.62" y2="613.54"/>
    <line class="cls-1" x1="2535.92" y1="686.35" x2="2889.62" y2="686.35"/>
    <line class="cls-1" x1="2535.92" y1="759.16" x2="2889.62" y2="759.16"/>
    <line class="cls-1" x1="2535.92" y1="831.97" x2="2889.62" y2="831.97"/>
    <line class="cls-1" x1="2535.92" y1="904.78" x2="2889.62" y2="904.78"/>
    <g>
      <path class="cls-3" d="M2821.08,374.8c-51.91,0-94,42.08-94,94s42.08,94,94,94,94-42.08,94-94-42.08-94-94-94ZM2821.08,537.58c-37.48,0-67.87-30.39-67.87-67.87s30.39-67.87,67.87-67.87,67.87,30.38,67.87,67.87-30.39,67.87-67.87,67.87Z"/>
      <path class="cls-3" d="M2918.32,393.55c-7.32-6.62-18.73-6.04-25.34,1.29l-68.95,76.34-30.56-27.6c-7.32-6.62-18.73-6.04-25.34,1.29-6.62,7.32-6.04,18.73,1.29,25.34l43.87,39.63c7.32,6.62,18.73,6.04,25.34-1.29.22-.25.41-.51.62-.76.23-.23.47-.45.69-.69l79.67-88.2c6.62-7.32,6.04-18.73-1.29-25.34Z"/>
    </g>
  </g>
  <g>
    <circle class="cls-2" cx="4388.91" cy="654.47" r="483.82"/>
    <path class="cls-4" d="M4702.84,402.97c.12,8.31-9.24,17.05-9.06,25.15.14,6.19,4.47,3.44,7.97,3.21,5.01-.33,11.12.44,15.88.01,1.42-.13,3.06-1.97,4.98-1.28l-.68,3.4c-48.63,43.78-96.37,88.63-146.28,130.97-44.37,37.63-89.81,66.72-137.83,99.01-4.42,2.97-11.34,8.86-15.73,10.92-6.38,2.99-7.26-2.49-11.66-2.24-3.68.21-11.49,6.59-12.09,10.33-.41,2.53,2.89,3.21,1.89,6.58-.35,1.17-16.58,13.37-19.02,15.36-46.88,38.4-92.12,74.88-142.33,109.12-37.1,25.3-74.48,47.19-112.86,70.25-7.87,4.73-15.37,10.4-23.38,14.88-6.75,3.78-14.53,7.94-22.47,7.39,1.16-8.05,7.01-14.44,9.24-21.92,1.18-3.94,1.88-7.93-2.61-9.87l-31.56,1.69c-.14-.14.53-3.3.72-3.79.78-2.07,19.48-19.78,22.69-22.88,63.32-60.94,132.33-116.09,203.79-167.17,15.15-10.83,30.66-21.17,45.82-31.98,65.05-46.39,124.54-98.38,191.99-141.56,43.83-28.06,89.65-55.7,134.51-82.13,12.52-7.37,26.65-15.46,40.07-20.97,1.18-.48,7.35-3.19,8.03-2.51Z"/>
  </g>
  <g>
    <circle class="cls-2" cx="1036.62" cy="654.47" r="483.82"/>
    <path class="cls-4" d="M1359.03,424.76l-86.98-.13c-5.24.44-9.6,4.28-10.35,9.55l-.16,476.38c.47,5.43,2.94,9.61,8.48,10.88l89.15.13c4.35-.61,7.81-3.5,8.82-7.87l.3-478.58c-.11-5.38-4-9.51-9.26-10.34Z"/>
    <path class="cls-4" d="M1223.51,583.42l-85.9-.13c-5.08.46-9.03,2.71-10.46,7.82-1.34,106.55-.17,213.34-.59,319.98.45,5.21,2.95,8.78,8.06,10.23l89.58.24c4.22-.53,7.49-3.38,8.63-7.5l.26-320.85c-.5-5.64-4.13-8.92-9.57-9.79Z"/>
    <path class="cls-4" d="M953.53,752.5l-86.98-.08c-4.91.3-8.4,1.96-9.72,4.82l-.26,158.68c.25,2.55,3.05,4.65,7.11,5.42l89.99.22c5.74-.45,9.46-3.17,9.43-6.6v-155.93c-.51-3.55-3.59-5.96-9.58-6.52Z"/>
    <path class="cls-4" d="M1089.06,683.44l-87.54-.13c-4.27.65-8.15,2.93-9.43,7.24-.95,74.33-.66,149.02-.14,223.38,1.28,3.96,4.62,7.55,9.02,7.65l88.22-.02c4.02-.36,7.09-3.63,8.36-7.24,1.21-73.57.14-147.41.53-221.09-.49-5.45-3.85-8.6-9.03-9.8Z"/>
    <path class="cls-4" d="M817.45,837.44c-27.21.69-56.84-1.2-83.77-.09-5.46.22-9.88,1.1-11.83,4.07l-.49,74.49c.02,2.97,4.05,5.49,9.62,5.67h87.69c6.08-.46,8.93-2.82,9.43-5.95l-.03-72.31c-.42-3.45-4.38-5.47-10.63-5.88Z"/>
    <path class="cls-4" d="M1101.4,412.95c-10.24-1.3-14.54-18.58-4.78-23.74,12.59-.75,83.94-10.73,89.96-5.91,1.95,1.56,4.41,7.94,4.93,10.65,2.39,12.33,7.44,66.64,5.93,77.46-2.37,17-25.17,13.94-25.96,4.28l-3.7-45.06c-87.26,109.67-206.6,207.22-342.09,249.89-27.67,8.71-61.44,17.09-90.2,20.48-8.93,1.05-25.83,4.53-30.65-4.71-4.15-7.96-1.33-15.24,6.28-19.26,106.87-9.85,205.47-55.1,290.15-118.85,55.64-41.89,107.89-93.04,148.72-149.23-14.14-.87-35.45,5.65-48.6,3.99Z"/>
  </g>
</svg>